<?xml version="1.0" standalone="no"?><svg xmlns="http://www.w3.org/2000/svg" viewBox="0 0 1440 320"><path fill="#0d6efd" fill-opacity="0.8" d="M0,32L0,160L110.8,160L110.8,0L221.5,0L221.5,160L332.3,160L332.3,64L443.1,64L443.1,32L553.8,32L553.8,224L664.6,224L664.6,256L775.4,256L775.4,128L886.2,128L886.2,160L996.9,160L996.9,160L1107.7,160L1107.7,256L1218.5,256L1218.5,192L1329.2,192L1329.2,0L1440,0L1440,320L1329.2,320L1329.2,320L1218.5,320L1218.5,320L1107.7,320L1107.7,320L996.9,320L996.9,320L886.2,320L886.2,320L775.4,320L775.4,320L664.6,320L664.6,320L553.8,320L553.8,320L443.1,320L443.1,320L332.3,320L332.3,320L221.5,320L221.5,320L110.8,320L110.8,320L0,320L0,320Z"></path></svg>